<?xml version="1.0" encoding="UTF-8" standalone="no"?>
<!DOCTYPE svg PUBLIC "-//W3C//DTD SVG 1.1//EN" "http://www.w3.org/Graphics/SVG/1.1/DTD/svg11.dtd">
<svg width="100%" height="100%" viewBox="0 0 156 112" version="1.1" xmlns="http://www.w3.org/2000/svg" xmlns:xlink="http://www.w3.org/1999/xlink" xml:space="preserve" xmlns:serif="http://www.serif.com/" style="fill-rule:evenodd;clip-rule:evenodd;stroke-linejoin:round;stroke-miterlimit:2;">
    <g transform="matrix(1,0,0,1,-42.221,-64.4012)">
        <path d="M124.016,69.606C123.593,69.761 122.771,69.917 122.193,69.917C121.37,69.939 121.081,70.05 120.726,70.495C120.481,70.806 120.103,71.051 119.859,71.051C119.614,71.051 119.236,71.184 119.014,71.362C118.614,71.651 118.658,71.695 119.57,71.962C120.526,72.229 121.548,73.096 121.57,73.652C121.57,73.785 121.993,74.252 122.504,74.696L123.46,75.475L122.726,76.23C122.059,76.919 122.015,77.008 122.259,77.742C122.949,79.787 124.438,81.165 126.439,81.61L127.195,81.766L127.083,80.654C126.994,79.809 127.061,79.498 127.283,79.409C127.461,79.32 127.572,79.031 127.528,78.676C127.484,78.164 127.55,78.031 127.973,77.987C128.261,77.942 128.55,77.764 128.617,77.586C128.684,77.409 128.862,77.275 129.039,77.275C129.216,77.275 129.351,77.075 129.351,76.831C129.351,76.542 129.573,76.297 129.973,76.164C131.752,75.519 132.396,74.696 130.929,74.897C130.196,74.985 130.018,74.941 130.018,74.674C130.018,74.407 130.196,74.363 130.796,74.452C131.574,74.585 131.885,74.319 131.24,74.096C131.063,74.007 130.685,73.563 130.373,73.096C130.084,72.629 129.529,72.096 129.151,71.94C128.751,71.784 128.239,71.273 127.906,70.695C127.128,69.361 125.705,68.961 124.016,69.606Z" style="fill:white;fill-rule:nonzero;"/>
        <path d="M106.854,71.229C105.609,71.673 105.009,72.162 105.698,72.162C106.054,72.184 106.031,72.251 105.476,72.762C105.098,73.074 104.787,73.518 104.787,73.741C104.764,74.074 104.898,74.163 105.565,74.163C106.009,74.163 106.476,74.274 106.609,74.407C106.921,74.719 107.454,74.43 108.543,73.296L109.41,72.407L108.766,72.251C107.788,72.029 107.743,71.94 108.121,71.362C108.543,70.717 108.343,70.695 106.854,71.229Z" style="fill:white;fill-rule:nonzero;"/>
        <path d="M112.523,73.496C111.722,73.985 111.7,74.03 112.011,74.585C112.167,74.897 112.078,75.119 111.567,75.608C111.189,75.964 110.9,76.386 110.9,76.542C110.9,77.075 111.811,76.853 112.456,76.164C113.212,75.341 114.523,75.23 114.901,75.919C115.301,76.675 115.168,77.431 114.546,77.898C113.634,78.542 113.945,79.343 115.346,80.054C115.968,80.365 116.457,80.521 116.457,80.41C116.457,80.276 116.368,80.121 116.235,80.054C115.702,79.72 116.035,79.454 116.791,79.587C117.702,79.765 117.813,79.431 117.124,78.565C116.591,77.875 116.769,77.631 117.48,78.075C118.08,78.476 118.903,78.298 118.903,77.764C118.88,77.564 118.48,77.075 117.991,76.719C117.502,76.341 117.058,75.786 116.991,75.43C116.902,75.097 116.569,74.652 116.213,74.452C115.857,74.23 115.568,73.941 115.568,73.785C115.568,73.429 115.413,73.363 114.234,73.185C113.456,73.074 113.078,73.14 112.523,73.496Z" style="fill:white;fill-rule:nonzero;"/>
        <path d="M143.8,80.298C143.8,80.721 143.978,80.921 144.578,81.188C145.023,81.365 145.557,81.699 145.801,81.943C146.046,82.188 146.379,82.388 146.557,82.388C146.713,82.388 146.979,82.544 147.135,82.722C147.357,82.988 147.357,83.055 147.135,83.055C146.935,83.055 146.957,83.166 147.202,83.455C147.424,83.677 147.513,83.944 147.424,84.033C147.335,84.122 147.468,84.233 147.735,84.3C147.98,84.367 148.291,84.611 148.38,84.833C148.558,85.211 148.624,85.189 149.313,84.633C150.003,84.033 150.025,83.989 149.736,83.322C149.514,82.766 149.38,82.677 149.18,82.877C148.98,83.077 148.913,83.077 148.913,82.877C148.913,82.744 148.158,82.277 147.246,81.832C146.335,81.41 145.49,80.854 145.357,80.61C145.223,80.387 145.001,80.232 144.823,80.298C144.667,80.365 144.467,80.254 144.401,80.076C144.178,79.52 143.8,79.654 143.8,80.298Z" style="fill:white;fill-rule:nonzero;"/>
        <path d="M167.602,153.764C161.877,161.226 154.314,167.261 145.734,170.975C138.221,174.221 131.596,175.599 123.349,175.599C116.746,175.599 111.5,174.776 105.609,172.776C94.871,169.129 85.706,162.477 79.06,153.764L81.816,153.764C95.425,170.511 118.282,177.822 139.577,171.042C149.369,167.918 158.5,161.656 164.964,153.764L167.602,153.764ZM133.471,153.764C133.161,154.039 132.877,154.128 132.596,154.058C132.018,153.925 128.306,155.525 127.861,156.125C127.706,156.325 127.572,156.77 127.572,157.126C127.572,157.548 127.372,157.882 126.906,158.237C126.55,158.504 126.194,158.882 126.127,159.082C126.061,159.282 125.772,159.571 125.483,159.704C125.194,159.838 124.66,160.349 124.327,160.838C123.527,161.972 121.948,162.594 120.881,162.216C120.259,162.016 120.214,162.016 120.348,162.372C120.437,162.572 120.548,163.061 120.614,163.439L120.726,164.128L119.036,164.306L117.347,164.462L117.347,165.129C117.347,165.773 117.324,165.795 116.435,165.64C115.524,165.484 115.502,165.484 115.657,166.04C115.724,166.351 115.835,166.729 115.902,166.907C115.991,167.107 115.768,167.352 115.324,167.552L114.612,167.885L115.301,168.174C116.035,168.485 116.257,168.863 115.679,168.863C115.502,168.863 115.346,169.019 115.346,169.197C115.346,169.352 115.19,169.597 114.99,169.708C114.679,169.886 114.723,169.975 115.257,170.353C115.613,170.597 116.28,170.931 116.746,171.064C118.102,171.509 117.747,171.82 116.079,171.664C114.946,171.553 114.101,171.286 112.701,170.575L110.811,169.641L110.322,168.174C110.033,167.352 109.611,165.951 109.388,165.084C108.988,163.506 108.988,163.417 109.366,162.194C109.722,161.016 109.744,160.816 109.433,159.727C109.255,159.06 108.966,156.726 108.81,154.547L108.753,153.764L133.471,153.764ZM74.56,93.113C77.997,86.849 82.666,81.198 88.447,76.564C91.738,73.941 94.672,72.073 98.784,70.05C104.342,67.294 109.988,65.56 116.013,64.737C119.258,64.293 127.083,64.293 130.396,64.715C145.268,66.671 158.628,74.385 167.72,86.278C169.359,88.427 170.844,90.718 172.158,93.113L168.997,93.113C169.014,93.023 168.975,92.891 168.898,92.681C168.787,92.369 168.743,92.036 168.809,91.947C169.009,91.614 167.075,88.835 166.631,88.835C166.408,88.835 166.297,88.924 166.364,89.057C166.431,89.168 166.364,89.279 166.208,89.279C166.053,89.279 165.43,88.79 164.808,88.168C164.03,87.412 163.607,87.123 163.385,87.256C163.007,87.501 163.23,87.879 164.319,88.813C164.83,89.279 165.141,89.746 165.141,90.08C165.141,90.724 164.897,90.769 164.519,90.169C164.208,89.68 162.474,88.724 162.474,89.035C162.474,89.146 162.563,89.302 162.674,89.368C162.785,89.435 162.918,89.88 162.963,90.324C163.029,90.791 163.141,91.347 163.252,91.569C163.385,91.925 163.341,91.969 162.896,91.903C162.451,91.858 162.363,91.702 162.318,90.947C162.296,89.902 161.873,89.502 160.073,88.835C159.384,88.568 158.495,88.168 158.094,87.923L157.383,87.479L157.316,87.99C157.272,88.346 157.072,88.524 156.672,88.568C155.983,88.657 155.694,89.346 156.16,89.746C156.538,90.057 156.561,90.48 156.205,91.058C155.983,91.414 156.005,91.68 156.383,92.569C156.462,92.759 156.529,92.94 156.583,93.113L151.356,93.113C151.243,92.858 151.092,92.594 150.914,92.347C150.558,91.858 150.247,91.302 150.247,91.147C150.247,90.68 151.181,90.169 152.048,90.169C153.315,90.169 153.559,89.68 152.937,88.479C152.626,87.901 152.248,87.501 152.026,87.501C151.803,87.501 151.514,87.345 151.359,87.168C151.203,86.99 150.736,86.834 150.336,86.834C149.447,86.834 149.336,86.456 150.136,86.256C150.758,86.101 150.825,85.945 150.425,85.545C150.225,85.345 150.269,85.278 150.625,85.278C150.981,85.278 151.07,85.167 150.981,84.811C150.914,84.567 150.981,84.122 151.136,83.833C151.359,83.411 151.359,83.233 151.159,82.966C150.981,82.766 150.981,82.61 151.114,82.521C151.248,82.433 151.292,82.232 151.225,82.055C151.159,81.899 151.203,81.566 151.336,81.321C151.492,81.032 151.492,80.832 151.336,80.676C150.981,80.321 151.959,80.054 152.359,80.387C152.648,80.632 152.67,80.565 152.559,79.943C152.426,79.298 152.448,79.231 152.87,79.365C153.604,79.609 153.226,78.698 152.27,78.009C151.114,77.142 150.959,77.008 151.47,77.186C151.914,77.342 151.914,77.342 151.492,76.875C151.27,76.63 150.87,76.386 150.603,76.341C150.247,76.297 150.114,76.097 150.069,75.497C149.98,74.674 149.491,73.941 148.98,73.941C148.736,73.941 148.736,74.074 149.025,74.608C149.38,75.274 149.313,75.719 148.891,75.719C148.558,75.719 146.89,74.585 145.868,73.674C144.934,72.829 144.467,72.629 144.467,73.051C144.467,73.163 144.756,73.407 145.112,73.607C145.49,73.785 146.046,74.296 146.379,74.741C146.713,75.163 147.379,75.719 147.846,75.964C148.736,76.43 151.359,78.853 151.359,79.231C151.359,79.343 151.159,79.498 150.914,79.565C150.625,79.632 150.469,79.565 150.469,79.387C150.469,79.031 149.291,78.253 148.424,78.053C147.913,77.92 147.846,77.964 147.957,78.364C148.024,78.676 147.98,78.831 147.757,78.831C147.224,78.831 144.645,77.186 144.467,76.719C144.356,76.475 144.134,75.808 143.934,75.252C143.667,74.496 143.378,74.141 142.933,73.963C142.6,73.807 142.133,73.385 141.911,72.985C141.689,72.585 141.266,72.096 140.977,71.873C140.688,71.651 140.466,71.273 140.466,71.029C140.466,70.651 140.644,70.606 142.155,70.606C143.956,70.606 144.756,70.851 144.556,71.384C144.467,71.584 144.623,71.74 145.023,71.851C145.334,71.918 145.646,71.94 145.712,71.873C146.179,71.429 144.156,70.428 140.088,69.072C137.22,68.139 134.442,67.472 130.974,66.938C128.261,66.516 121.103,66.338 118.125,66.627C114.812,66.96 109.988,67.983 106.676,69.072C103.942,69.961 103.697,70.095 103.208,70.851C102.919,71.317 102.475,71.851 102.186,72.051L101.674,72.429L102.23,72.273C102.541,72.184 102.919,72.051 103.075,71.984C103.23,71.94 103.431,72.073 103.497,72.34C103.542,72.585 103.786,72.829 104.031,72.896C104.542,73.029 104.587,73.674 104.12,73.852C103.942,73.941 103.786,74.118 103.786,74.296C103.786,74.63 104.742,74.963 105.076,74.741C105.187,74.674 105.876,74.808 106.565,75.052C108.299,75.652 108.566,75.63 109.277,74.719C110.077,73.718 111.722,72.54 111.9,72.829C111.967,72.94 111.7,73.252 111.278,73.496C110.277,74.096 109.922,74.83 110.389,75.475C110.566,75.741 110.655,76.186 110.589,76.453C110.433,77.097 108.877,78.053 107.276,78.453C102.719,79.632 102.03,82.655 106.009,83.966C107.165,84.344 107.276,84.522 106.721,85.278C106.143,86.034 106.098,86.879 106.587,87.368C107.232,88.035 107.61,87.701 108.01,86.101C108.166,85.523 108.343,85.056 108.432,85.056C108.499,85.056 109.01,84.678 109.522,84.211C110.455,83.433 110.478,83.366 110.211,82.766C109.944,82.166 109.966,82.099 110.633,81.588C111.189,81.143 111.344,80.854 111.344,80.254C111.344,79.409 111.522,79.343 112.701,79.743C113.745,80.098 114.212,80.565 114.723,81.721L115.168,82.722L116.635,81.032L117.213,81.721C117.836,82.477 118.125,83.322 117.947,83.811C117.769,84.278 118.236,84.789 119.458,85.456C120.859,86.234 121.081,86.612 120.703,87.545C120.125,89.013 120.125,88.99 121.281,89.324C122.282,89.613 122.348,89.68 122.415,90.458C122.504,91.458 122.126,91.68 121.148,91.191C120.792,90.991 120.081,90.836 119.57,90.836C118.525,90.836 118.48,90.658 119.125,89.19C119.347,88.635 119.481,88.168 119.392,88.168C119.303,88.168 118.792,88.524 118.258,88.946C117.613,89.457 117.035,89.724 116.591,89.724C115.635,89.724 115.346,89.969 115.124,90.969C114.901,91.925 115.012,92.08 116.213,92.303C116.791,92.414 117.035,92.369 117.235,92.08C117.502,91.725 118.236,91.591 118.236,91.903C118.236,92.305 117.782,92.679 116.734,93.113L114.438,93.113C114.466,93.094 114.494,93.076 114.523,93.059C115.19,92.636 115.19,92.614 114.701,92.614C114.276,92.614 113.658,92.815 113.043,93.113L81.629,93.113C82.493,90.755 83.599,89.051 85.669,86.856C87.514,84.922 87.781,84.522 88.136,83.3C88.447,82.121 88.67,81.788 89.692,80.921C90.337,80.365 91.182,79.431 91.56,78.831C91.938,78.231 92.582,77.542 93.005,77.297C93.694,76.897 95.072,74.941 94.85,74.719C94.783,74.652 94.005,75.119 93.094,75.764C86.366,80.456 80.94,86.341 77.008,93.113L74.56,93.113ZM160.756,93.113C160.912,92.964 161.019,92.806 161.051,92.658C161.229,92.036 161.407,92.036 162.207,92.725C162.34,92.836 162.462,92.968 162.571,93.113L160.756,93.113ZM167.044,93.113L167.412,93.113C167.268,93.072 167.145,93.075 167.044,93.113Z" style="fill:white;fill-rule:nonzero;"/>
        <path d="M57.802,142.101L42.221,105.775L53.014,105.775L64.211,131.857L57.802,142.101ZM72.347,142.1L60.711,114.601L67.318,104.777L72.446,117.51L77.179,105.775L88.026,105.775L72.347,142.1Z" style="fill:white;fill-rule:nonzero;"/>
        <path d="M105.874,141.275L89.801,141.275L89.801,132.745L102.275,132.745C102.702,132.745 103.253,132.607 103.927,132.33C104.6,132.053 104.937,131.394 104.937,130.353C104.937,129.8 104.724,129.238 104.296,128.669C103.869,128.099 103.212,127.814 102.324,127.814L89.801,127.814L89.801,119.285L102.225,119.285C102.686,119.285 103.327,119.161 104.148,118.915C104.97,118.668 105.381,117.986 105.381,116.869C105.381,116.113 105.11,115.496 104.567,115.02C104.025,114.543 103.277,114.305 102.324,114.305L89.801,114.305L89.801,105.775L106.564,105.775C108.602,105.775 110.336,106.203 111.766,107.058C113.196,107.914 114.264,109.14 114.971,110.736C115.678,112.333 116.031,113.921 116.031,115.5C116.031,117.311 115.587,118.883 114.7,120.216C113.812,121.549 112.58,122.511 111.002,123.103C113.368,124.482 114.774,126.034 115.217,127.757C115.661,129.48 115.883,130.818 115.883,131.77C115.883,134.463 114.938,136.72 113.048,138.542C111.158,140.364 108.767,141.275 105.874,141.275Z" style="fill:white;fill-rule:nonzero;"/>
        <rect x="120.123" y="105.775" width="9.959" height="35.5" style="fill:white;fill-rule:nonzero;"/>
        <path d="M140.782,137.534C138.613,135.728 136.936,133.569 135.753,131.058C134.57,128.547 133.978,125.929 133.978,123.205C133.978,118.15 135.786,113.866 139.402,110.353C143.017,106.841 147.471,105.085 152.763,105.085C154.998,105.085 157.562,105.594 160.455,106.611C163.347,107.629 165.895,109.722 168.097,112.889C170.299,116.057 171.401,119.528 171.401,123.303C171.401,125.995 170.825,128.555 169.675,130.985C168.524,133.414 166.963,135.466 164.991,137.14C163.019,138.814 161.005,140.036 158.951,140.808C156.897,141.579 154.785,141.965 152.615,141.965C148.277,141.965 144.332,140.488 140.782,137.534ZM144.48,123.402C144.48,124.91 144.685,126.263 145.096,127.459C145.507,128.656 146.28,129.926 147.414,131.271C148.548,132.615 150.298,133.287 152.665,133.287C155.13,133.287 156.913,132.599 158.014,131.221C159.115,129.844 159.855,128.574 160.233,127.41C160.611,126.246 160.8,124.861 160.8,123.254C160.8,121.68 160.578,120.147 160.134,118.655C159.691,117.163 158.795,115.925 157.447,114.942C156.1,113.958 154.555,113.467 152.813,113.467C152.221,113.467 151.654,113.516 151.112,113.614C150.569,113.712 149.747,113.991 148.646,114.45C147.545,114.91 146.575,115.91 145.737,117.451C144.899,118.992 144.48,120.975 144.48,123.402Z" style="fill:white;fill-rule:nonzero;"/>
        <path d="M177.169,137.823C176.38,136.936 175.813,135.958 175.468,134.89C175.123,133.821 174.951,132.482 174.951,130.871L174.951,119.285L184.861,119.285L184.861,129.54C184.861,131.677 185.732,132.745 187.474,132.745L195.412,132.745L195.412,141.275L184.319,141.275C183.07,141.275 181.804,140.971 180.522,140.363C179.24,139.754 178.123,138.908 177.169,137.823ZM172.83,114.305L172.83,105.775L197.779,105.775L197.779,114.305L172.83,114.305Z" style="fill:white;fill-rule:nonzero;"/>
        <path d="M187.331,69.814C188.813,69.814 190.259,70.194 191.671,70.954C193.082,71.715 194.182,72.802 194.969,74.218C195.757,75.633 196.151,77.109 196.151,78.645C196.151,80.166 195.763,81.628 194.987,83.032C194.211,84.436 193.123,85.525 191.723,86.301C190.324,87.077 188.859,87.465 187.331,87.465C185.803,87.465 184.338,87.077 182.939,86.301C181.539,85.525 180.449,84.436 179.669,83.032C178.889,81.628 178.499,80.166 178.499,78.645C178.499,77.109 178.895,75.633 179.687,74.218C180.478,72.802 181.58,71.715 182.991,70.954C184.403,70.194 185.849,69.814 187.331,69.814ZM187.331,71.276C186.091,71.276 184.884,71.594 183.711,72.229C182.537,72.865 181.619,73.773 180.956,74.955C180.293,76.136 179.962,77.366 179.962,78.645C179.962,79.916 180.287,81.135 180.938,82.301C181.59,83.467 182.5,84.375 183.67,85.026C184.839,85.677 186.06,86.003 187.331,86.003C188.602,86.003 189.823,85.677 190.992,85.026C192.162,84.375 193.071,83.467 193.718,82.301C194.365,81.135 194.689,79.916 194.689,78.645C194.689,77.366 194.359,76.136 193.7,74.955C193.041,73.773 192.123,72.865 190.945,72.229C189.768,71.594 188.563,71.276 187.331,71.276ZM183.459,83.523L183.459,74.025L186.723,74.025C187.838,74.025 188.645,74.113 189.144,74.288C189.643,74.463 190.041,74.77 190.337,75.206C190.634,75.643 190.782,76.107 190.782,76.598C190.782,77.292 190.534,77.897 190.039,78.411C189.544,78.926 188.887,79.215 188.068,79.277C188.403,79.417 188.672,79.585 188.875,79.78C189.257,80.154 189.725,80.782 190.279,81.663L191.437,83.523L189.565,83.523L188.723,82.026C188.06,80.848 187.526,80.111 187.12,79.815C186.84,79.597 186.43,79.488 185.892,79.488L184.992,79.488L184.992,83.523L183.459,83.523ZM184.992,78.177L186.851,78.177C187.74,78.177 188.347,78.045 188.67,77.78C188.994,77.515 189.156,77.164 189.156,76.727C189.156,76.446 189.078,76.195 188.922,75.972C188.766,75.75 188.549,75.584 188.273,75.475C187.996,75.366 187.483,75.312 186.734,75.312L184.992,75.312L184.992,78.177Z" style="fill:white;fill-rule:nonzero;"/>
    </g>
</svg>
