<?xml version="1.0" encoding="UTF-8" standalone="no"?>
<!DOCTYPE svg PUBLIC "-//W3C//DTD SVG 1.1//EN" "http://www.w3.org/Graphics/SVG/1.1/DTD/svg11.dtd">
<svg width="100%" height="100%" viewBox="0 0 50 50" version="1.1" xmlns="http://www.w3.org/2000/svg" xmlns:xlink="http://www.w3.org/1999/xlink" xml:space="preserve" xmlns:serif="http://www.serif.com/" style="fill-rule:evenodd;clip-rule:evenodd;stroke-linejoin:round;stroke-miterlimit:2;">
    <g transform="matrix(1,0,0,1,-4.1117,-3.4891)">
        <g>
            <path d="M46.38,10.714C41.729,6.057 35.544,3.492 28.954,3.489C15.375,3.489 4.324,14.54 4.318,28.122C4.316,32.464 5.451,36.702 7.607,40.438L4.112,53.204L17.171,49.778C20.769,51.741 24.821,52.775 28.944,52.777L28.954,52.777C28.955,52.777 28.953,52.777 28.954,52.777C42.531,52.777 53.583,41.725 53.589,28.142C53.591,21.56 51.031,15.37 46.38,10.714ZM28.954,48.616L28.945,48.616C25.271,48.615 21.668,47.628 18.524,45.762L17.776,45.319L10.027,47.351L12.095,39.796L11.608,39.021C9.559,35.761 8.476,31.993 8.478,28.124C8.482,16.834 17.668,7.65 28.962,7.65C34.431,7.652 39.572,9.784 43.438,13.655C47.304,17.525 49.432,22.669 49.429,28.14C49.425,39.431 40.24,48.616 28.954,48.616Z" style="fill:white;"/>
            <path d="M40.185,33.281C39.57,32.973 36.543,31.484 35.979,31.278C35.415,31.073 35.004,30.97 34.594,31.586C34.184,32.203 33.004,33.589 32.645,34C32.286,34.411 31.927,34.462 31.311,34.154C30.696,33.846 28.712,33.196 26.361,31.099C24.531,29.467 23.296,27.451 22.937,26.835C22.578,26.218 22.899,25.885 23.207,25.578C23.484,25.302 23.822,24.859 24.13,24.5C24.438,24.141 24.541,23.884 24.746,23.473C24.951,23.062 24.848,22.703 24.694,22.395C24.541,22.087 23.31,19.057 22.797,17.824C22.297,16.624 21.789,16.787 21.412,16.768C21.053,16.75 20.642,16.746 20.232,16.746C19.822,16.746 19.155,16.9 18.59,17.516C18.026,18.132 16.436,19.622 16.436,22.651C16.436,25.681 18.642,28.608 18.949,29.019C19.257,29.43 23.29,35.647 29.465,38.313C30.933,38.948 32.08,39.326 32.974,39.61C34.448,40.079 35.79,40.012 36.851,39.854C38.034,39.677 40.493,38.365 41.006,36.927C41.519,35.489 41.519,34.257 41.365,34C41.211,33.743 40.801,33.589 40.185,33.281Z" style="fill:white;"/>
        </g>
    </g>
</svg>
